<mxfile host="app.diagrams.net" modified="2024-04-13T16:59:34.376Z" agent="Mozilla/5.0 (Windows NT 10.0; Win64; x64) AppleWebKit/537.36 (KHTML, like Gecko) Chrome/123.0.0.0 Safari/537.36" etag="W53u1BGesD7tsyfJSQg4" version="24.2.5" type="github">
  <diagram name="Page-1" id="9OuFn9asQA0T_BERR28A">
    <mxGraphModel dx="977" dy="607" grid="1" gridSize="10" guides="1" tooltips="1" connect="1" arrows="1" fold="1" page="1" pageScale="1" pageWidth="850" pageHeight="1100" math="0" shadow="0">
      <root>
        <mxCell id="0" />
        <mxCell id="1" parent="0" />
        <mxCell id="maxmGwOta3VXcljxq-BI-5" style="edgeStyle=orthogonalEdgeStyle;rounded=0;orthogonalLoop=1;jettySize=auto;html=1;entryX=0;entryY=0.5;entryDx=0;entryDy=0;" edge="1" parent="1" source="maxmGwOta3VXcljxq-BI-1" target="maxmGwOta3VXcljxq-BI-2">
          <mxGeometry relative="1" as="geometry" />
        </mxCell>
        <mxCell id="maxmGwOta3VXcljxq-BI-1" value="Main ESP32" style="rounded=1;whiteSpace=wrap;html=1;" vertex="1" parent="1">
          <mxGeometry x="365" y="90" width="120" height="60" as="geometry" />
        </mxCell>
        <mxCell id="maxmGwOta3VXcljxq-BI-6" style="edgeStyle=orthogonalEdgeStyle;rounded=0;orthogonalLoop=1;jettySize=auto;html=1;" edge="1" parent="1" source="maxmGwOta3VXcljxq-BI-2" target="maxmGwOta3VXcljxq-BI-1">
          <mxGeometry relative="1" as="geometry" />
        </mxCell>
        <mxCell id="maxmGwOta3VXcljxq-BI-2" value="SD Card module" style="rounded=1;whiteSpace=wrap;html=1;" vertex="1" parent="1">
          <mxGeometry x="520" y="90" width="120" height="60" as="geometry" />
        </mxCell>
        <mxCell id="maxmGwOta3VXcljxq-BI-26" style="edgeStyle=orthogonalEdgeStyle;rounded=0;orthogonalLoop=1;jettySize=auto;html=1;exitX=0.5;exitY=0;exitDx=0;exitDy=0;entryX=0.5;entryY=1;entryDx=0;entryDy=0;fillColor=#dae8fc;strokeColor=#6c8ebf;dashed=1;curved=1;" edge="1" parent="1" source="maxmGwOta3VXcljxq-BI-7" target="maxmGwOta3VXcljxq-BI-1">
          <mxGeometry relative="1" as="geometry" />
        </mxCell>
        <mxCell id="maxmGwOta3VXcljxq-BI-7" value="Cardan ESP32" style="rounded=1;whiteSpace=wrap;html=1;" vertex="1" parent="1">
          <mxGeometry x="440" y="240" width="120" height="60" as="geometry" />
        </mxCell>
        <mxCell id="maxmGwOta3VXcljxq-BI-11" style="edgeStyle=orthogonalEdgeStyle;rounded=0;orthogonalLoop=1;jettySize=auto;html=1;exitX=0.5;exitY=0;exitDx=0;exitDy=0;entryX=0.5;entryY=1;entryDx=0;entryDy=0;" edge="1" parent="1" source="maxmGwOta3VXcljxq-BI-8" target="maxmGwOta3VXcljxq-BI-7">
          <mxGeometry relative="1" as="geometry" />
        </mxCell>
        <mxCell id="maxmGwOta3VXcljxq-BI-8" value="Amp" style="rounded=1;whiteSpace=wrap;html=1;" vertex="1" parent="1">
          <mxGeometry x="440" y="330" width="120" height="60" as="geometry" />
        </mxCell>
        <mxCell id="maxmGwOta3VXcljxq-BI-10" style="edgeStyle=orthogonalEdgeStyle;rounded=0;orthogonalLoop=1;jettySize=auto;html=1;exitX=0.5;exitY=0;exitDx=0;exitDy=0;entryX=0.5;entryY=1;entryDx=0;entryDy=0;" edge="1" parent="1" source="maxmGwOta3VXcljxq-BI-9" target="maxmGwOta3VXcljxq-BI-8">
          <mxGeometry relative="1" as="geometry" />
        </mxCell>
        <mxCell id="maxmGwOta3VXcljxq-BI-9" value="Gauge" style="rounded=1;whiteSpace=wrap;html=1;" vertex="1" parent="1">
          <mxGeometry x="440" y="420" width="120" height="60" as="geometry" />
        </mxCell>
        <mxCell id="maxmGwOta3VXcljxq-BI-25" style="edgeStyle=orthogonalEdgeStyle;rounded=0;orthogonalLoop=1;jettySize=auto;html=1;exitX=0.5;exitY=0;exitDx=0;exitDy=0;entryX=0.5;entryY=1;entryDx=0;entryDy=0;dashed=1;fillColor=#dae8fc;strokeColor=#6c8ebf;curved=1;" edge="1" parent="1" source="maxmGwOta3VXcljxq-BI-14" target="maxmGwOta3VXcljxq-BI-1">
          <mxGeometry relative="1" as="geometry" />
        </mxCell>
        <mxCell id="maxmGwOta3VXcljxq-BI-14" value="Cardan ESP32" style="rounded=1;whiteSpace=wrap;html=1;" vertex="1" parent="1">
          <mxGeometry x="290" y="240" width="120" height="60" as="geometry" />
        </mxCell>
        <mxCell id="maxmGwOta3VXcljxq-BI-15" style="edgeStyle=orthogonalEdgeStyle;rounded=0;orthogonalLoop=1;jettySize=auto;html=1;exitX=0.5;exitY=0;exitDx=0;exitDy=0;entryX=0.5;entryY=1;entryDx=0;entryDy=0;" edge="1" parent="1" source="maxmGwOta3VXcljxq-BI-16" target="maxmGwOta3VXcljxq-BI-14">
          <mxGeometry relative="1" as="geometry" />
        </mxCell>
        <mxCell id="maxmGwOta3VXcljxq-BI-16" value="Amp" style="rounded=1;whiteSpace=wrap;html=1;" vertex="1" parent="1">
          <mxGeometry x="290" y="330" width="120" height="60" as="geometry" />
        </mxCell>
        <mxCell id="maxmGwOta3VXcljxq-BI-17" style="edgeStyle=orthogonalEdgeStyle;rounded=0;orthogonalLoop=1;jettySize=auto;html=1;exitX=0.5;exitY=0;exitDx=0;exitDy=0;entryX=0.5;entryY=1;entryDx=0;entryDy=0;" edge="1" parent="1" source="maxmGwOta3VXcljxq-BI-18" target="maxmGwOta3VXcljxq-BI-16">
          <mxGeometry relative="1" as="geometry" />
        </mxCell>
        <mxCell id="maxmGwOta3VXcljxq-BI-18" value="Gauge" style="rounded=1;whiteSpace=wrap;html=1;" vertex="1" parent="1">
          <mxGeometry x="290" y="420" width="120" height="60" as="geometry" />
        </mxCell>
      </root>
    </mxGraphModel>
  </diagram>
</mxfile>
